# xmcd CD database file
#
# Track frame offsets:
#	150
#	26179
#	79067
#	116868
#	149541
#	173928
#	206226
#	236897
#	265668
#
# Disc length: 3612 seconds
#
# Revision: 0
# Processed by: cddbd v1.5.2PL0 Copyright (c) Steve Scherf et al.
# Submitted via: CDex 1.51
#
DISCID=890e1a09
DTITLE=Metta Quintet - Subway Songs
DYEAR=2006
DGENRE=Jazz
TTITLE0=Morning Rush (Stand Clear Of The Closing Doors) 
TTITLE1=Underground
TTITLE2=Subway Suite, Pt. 1
TTITLE3=Subway Suite, Pt. 2
TTITLE4=Subway Suite, Pt. 3
TTITLE5=Fast Forward
TTITLE6=Underground Messenger
TTITLE7=Ephemeral Muse
TTITLE8=Evening Rush
EXTD=YEAR: 2006
EXTT0=
EXTT1=
EXTT2=
EXTT3=
EXTT4=
EXTT5=
EXTT6=
EXTT7=
EXTT8=
PLAYORDER=
